<svg width="341.9" height="74.20744091850914" viewBox="0 0 370 80.30638531690079" class="looka-1j8o68f"><defs id="SvgjsDefs8326"><linearGradient id="SvgjsLinearGradient8333"><stop id="SvgjsStop8334" stop-color="#00ddff" offset="0"></stop><stop id="SvgjsStop8335" stop-color="#ff00d4" offset="1"></stop></linearGradient></defs><g id="SvgjsG8327" featurekey="ggLddZ-0" transform="matrix(1.1666666666666667,0,0,1.1666666666666667,-2.3333333333333335,2.684147596359253)" fill="#545454"><title xmlns="http://www.w3.org/2000/svg">technology-idea-creative-knowledge-education</title><path xmlns="http://www.w3.org/2000/svg" d="M58,2a3.99158,3.99158,0,0,0-1,7.858V12H49a.99943.99943,0,0,0-1,1v6h2V14h8a.99943.99943,0,0,0,1-1V9.858A3.99158,3.99158,0,0,0,58,2Zm0,6a2,2,0,1,1,2-2A2.0026,2.0026,0,0,1,58,8Z"></path><path xmlns="http://www.w3.org/2000/svg" d="M5,9.858V13a.99943.99943,0,0,0,1,1h8v6h2V13a.99943.99943,0,0,0-1-1H7V9.858a4,4,0,1,0-2,0ZM6,4A2,2,0,1,1,4,6,2.0026,2.0026,0,0,1,6,4Z"></path><path xmlns="http://www.w3.org/2000/svg" d="M59,48.142V31a.99943.99943,0,0,0-1-1H54v2h3V48.142a4,4,0,1,0,2,0ZM58,54a2,2,0,1,1,2-2A2.0026,2.0026,0,0,1,58,54Z"></path><path xmlns="http://www.w3.org/2000/svg" d="M52,32H51V29.99316a1.00061,1.00061,0,0,0-.68555-.94921l-3.43457-1.1377a15.77928,15.77928,0,0,0-.76172-1.833l1.45118-3.05664a.999.999,0,0,0-.08887-1.00879,19.05188,19.05188,0,0,0-4.48828-4.48828,1.00212,1.00212,0,0,0-1.00879-.08887l-3.05664,1.45118a15.77928,15.77928,0,0,0-1.833-.76172l-1.1377-3.43457A1.00061,1.00061,0,0,0,35.00684,14H28.99316a1.00061,1.00061,0,0,0-.94921.68555L26.89062,18.167l-1.77343.73633L22.0166,17.43066a1.0044,1.0044,0,0,0-1.00879.08887,19.05188,19.05188,0,0,0-4.48828,4.48828.999.999,0,0,0-.08887,1.00879l1.47266,3.10059L17.167,27.89062,13.68555,29.044A1.00061,1.00061,0,0,0,13,29.99316V32H12a.99943.99943,0,0,0-1,1,20.81719,20.81719,0,0,0,8.44238,16.82129A8.52324,8.52324,0,0,1,23,56.64746V57a.99943.99943,0,0,0,1,1h1.10107A5.00837,5.00837,0,0,0,30,62h4a5.00837,5.00837,0,0,0,4.89893-4H40a.99943.99943,0,0,0,1-1v-.35254a8.52324,8.52324,0,0,1,3.55762-6.82617A20.81719,20.81719,0,0,0,53,33,.99943.99943,0,0,0,52,32ZM15,30.71582l3.22949-1.07031a1.00039,1.00039,0,0,0,.60938-.56543l1.082-2.60645a1.00222,1.00222,0,0,0-.02051-.8125l-1.40625-2.96191a17.05738,17.05738,0,0,1,3.20508-3.20508l2.96191,1.40625a.99842.99842,0,0,0,.8125.02051l2.60645-1.082a1.00039,1.00039,0,0,0,.56543-.60938L29.71582,16h4.56836l1.07031,3.22949a.99645.99645,0,0,0,.65723.6416,13.70647,13.70647,0,0,1,2.42871,1.00879,1.00339,1.00339,0,0,0,.89844.02051l2.96191-1.40625a17.05738,17.05738,0,0,1,3.20508,3.20508l-1.40625,2.96191a1.0004,1.0004,0,0,0,.02051.89844,13.70647,13.70647,0,0,1,1.00879,2.42871.99645.99645,0,0,0,.6416.65723L49,30.71582V32H43.94934a11.99031,11.99031,0,0,0-23.89868,0H15ZM35,27H29a.99943.99943,0,0,0-1,1v4H22.05072a9.99934,9.99934,0,0,1,19.89856,0H36V28A.99943.99943,0,0,0,35,27Zm-1,2v3H30V29Zm0,31H30a2.995,2.995,0,0,1-2.81567-2h9.6314A2.99507,2.99507,0,0,1,34,60Zm9.36035-11.78027A10.55037,10.55037,0,0,0,39.02051,56H33V50a1.0004,1.0004,0,0,0-.55273-.89453l-2.42188-1.21094A5.442,5.442,0,0,1,27,43h2a2.0026,2.0026,0,0,0,2,2h2a2.0026,2.0026,0,0,0,2-2h2a5.442,5.442,0,0,1-3.02539,4.89453l-.42188.21094.89454,1.78906.42187-.21094A7.4325,7.4325,0,0,0,39,43a2.0026,2.0026,0,0,0-2-2H35a2.0026,2.0026,0,0,0-2,2H31a2.0026,2.0026,0,0,0-2-2H27a2.0026,2.0026,0,0,0-2,2,7.4325,7.4325,0,0,0,4.13086,6.68359L31,50.61816V56H24.97949a10.55037,10.55037,0,0,0-4.33984-7.78027A18.829,18.829,0,0,1,13.02539,34H50.97461A18.829,18.829,0,0,1,43.36035,48.21973Z"></path><path xmlns="http://www.w3.org/2000/svg" d="M33,12V9.858a4,4,0,1,0-2,0V12ZM30,6a2,2,0,1,1,2,2A2.0026,2.0026,0,0,1,30,6Z"></path><path xmlns="http://www.w3.org/2000/svg" d="M5,31V48.142a4,4,0,1,0,2,0V32h3V30H6A.99943.99943,0,0,0,5,31ZM8,52a2,2,0,1,1-2-2A2.0026,2.0026,0,0,1,8,52Z"></path></g><g id="SvgjsG8328" featurekey="nN0dxP-0" transform="matrix(4.239542094484079,0,0,4.239542094484079,90,-25.420012607673215)" fill="url(#SvgjsLinearGradient8333)"><path d="M0.21484 5.996 l3.125 -0.0000095367 c0.34505 1.2565 1.0547 3.7728 2.1289 7.5488 l1.2305 0 c0.032549 0 0.16602 -0.45247 0.40039 -1.3574 c0.52083 -1.7773 1.1035 -3.8411 1.748 -6.1914 l2.8906 0 l0 9.082 l0.16602 0 l0 1.6602 l-0.87891 0 l0 0.30273 l0.87891 0 l0 2.959 l-2.4609 0 l0 -1.084 l0.30273 0 l0 -3.3594 l-0.51758 0 l0 -1.6797 l-0.3125 0 l-0.019531 0.087891 l-0.26367 0 l0 2.3926 l-0.84961 0 l0 1.1133 l-0.73242 0 l0 1.8945 l-1.7285 0 l0 -1.2109 l-1.0645 0 l0 -1.6602 l-0.63477 0 l0 -1.7188 l-0.36133 0 c-0.013018 -0.097656 -0.091143 -0.39714 -0.23438 -0.89844 l2.4805 0 l-0.068359 -0.33203 l-2.4805 0 l0.068359 0.33203 l-0.33203 0 l0 2.168 l0.16602 0 l0 2.3926 l-0.61523 0 l0 0.42969 l0.61523 0 l0 0.63477 l-2.2266 0 l0 -2.8809 l-0.41992 0 l0 -10.625 z M2.6758 12.5488 l0 0.16602 c0 0.14323 0.0065136 0.41992 0.019531 0.83008 l0.23438 0 c-0.15625 -0.63151 -0.23438 -0.96354 -0.23438 -0.99609 l-0.019531 0 z M9.2285 12.5684 l-0.21484 0.97656 l0.21484 0 c0.013018 -0.40364 0.019531 -0.69661 0.019531 -0.87891 l0 -0.097656 l-0.019531 0 z M1.8945 13.5449 l0 0.33203 l0.78125 0 l0 -0.33203 l-0.78125 0 z M6.7383 13.5449 l-0.068359 0.33203 l2.2266 0 c0.065107 -0.17578 0.097656 -0.28646 0.097656 -0.33203 l-2.2559 0 z M9.248 13.5449 l0 0.33203 l1.709 0 l0 -0.33203 l-1.709 0 z M5.5566 13.876999999999999 c0.11067 0.5013 0.18229 0.75195 0.21484 0.75195 l0.2832 0 l0 1.25 l0.44922 0 l0 -1.9336 l0.11719 0 l0 -0.068359 l-1.0645 0 z M11.904 16.7383 l1.416 0 l0 0.30273 l-1.416 0 l0 -0.30273 z M12.041 17.1582 l0.11719 -0.0000095367 l0 0.21484 l0.19531 0 l0 -0.16602 c0 -0.032549 0.016279 -0.048828 0.048828 -0.048828 l0.039063 0 c0.032549 0.0065136 0.048828 0.022793 0.048828 0.048838 l0 0.44922 c0 0.032549 -0.016279 0.048828 -0.048828 0.048828 l-0.087891 0 l0 -0.21484 l-0.19531 0 l0 0.21484 l-0.11719 0 l0 -0.54688 z M12.041 17.8711 l0.33203 -0.0000095367 c0.032549 0.0065136 0.048828 0.022793 0.048828 0.048838 l0 0.068359 l-0.26367 0 l0 0.097656 l0.21484 0 l0 0.11719 l-0.21484 0 l0 0.21484 l-0.11719 0 l0 -0.54688 z M12.07 18.584 l0.33202 0 c0.026045 0 0.039063 0.013018 0.039063 0.039063 l0 0.048828 l-0.25391 0.33203 l0.25391 0 l0 0.11719 l-0.40039 0 c-0.032549 0 -0.048828 -0.022783 -0.048828 -0.068359 c0.05208 -0.078125 0.13997 -0.19531 0.26367 -0.35156 l-0.23438 0 l0 -0.078125 c0.0065136 -0.026045 0.022793 -0.039063 0.048838 -0.039063 z M12.041 19.28708 l0.11719 -0.0000095367 l0 0.3125 l0.029297 0.11719 l0.11719 0 c0.032549 0 0.048828 -0.016279 0.048828 -0.048828 l0 -0.33203 c0 -0.032549 0.016279 -0.048828 0.048828 -0.048828 l0.039063 0 c0.032549 0.0065136 0.048828 0.022793 0.048828 0.048838 l0 0.2832 c0 0.14323 -0.071611 0.21484 -0.21484 0.21484 l-0.039063 0 c-0.091143 0 -0.15625 -0.039063 -0.19531 -0.11719 l0 -0.42969 z M0 19.6191 l2.5098 0 l0 0.21484 l-2.5098 0 l0 -0.21484 z M17.6562875 6.016 l2.3535 0 c0.032549 0.13672 0.79752 2.6823 2.2949 7.6367 l0.41992 0 l0 4.5996 l-0.9668 0 l0 0.36133 l0.9668 0 l0 0.98633 l-2.5977 0 l0 -2.832 l-3.1836 0 l0 1.2012 l-1.2891 0 l0 2.0313 l-2.3633 0 l0 -0.13672 l0.18555 0 l0 -1.8945 l0.9668 0 l0 -3.916 l0.80078 0 z M18.7597875 9.951 l0 0.029306 c-0.20183 1.1067 -0.59245 2.8581 -1.1719 5.2539 l2.1875 0 l0 -1.582 l-0.18555 0 c-0.52083 -2.2656 -0.78125 -3.4993 -0.78125 -3.7012 l-0.048828 0 z M14.5898875 13.349599999999999 l0.21484 0 c0 0.058594 0.029297 0.10742 0.087891 0.14648 c0.0065136 -0.058594 0.039063 -0.10742 0.097656 -0.14648 l0.16602 0 l0 0.019531 c-0.11067 0.15625 -0.16602 0.24414 -0.16602 0.26367 c0.026045 0.058594 0.087891 0.153 0.18555 0.2832 l0 0.048828 l-0.087891 0 c-0.091143 0 -0.15625 -0.065107 -0.19531 -0.19531 c-0.097656 0.13021 -0.153 0.19531 -0.16602 0.19531 l-0.11719 0 c-0.032549 0 -0.048828 -0.016279 -0.048828 -0.048828 c0.019531 0 0.084639 -0.087891 0.19531 -0.26367 l0 -0.039063 c-0.11067 -0.16276 -0.16602 -0.25065 -0.16602 -0.26367 z M12.6074275 13.6328 l1.8359 0 l0 0.41992 l-1.8359 0 l0 -0.41992 z M22.792987500000002 13.935500000000001 l0.49805 -0.0000095367 l0 0.11719 l-0.30273 0.38086 l0.2832 0 c0.026045 0.0065136 0.039063 0.022793 0.039063 0.048838 l0 0.048828 c0 0.032549 -0.013018 0.048828 -0.039063 0.048828 l-0.49805 0 l0 -0.11719 l0.30273 -0.38086 l-0.2832 0 l0 -0.14648 z M19.1894875 14.550799999999999 l0.13671 -0.0000095367 l0 0.23438 l0.26367 -0.23438 l0.13672 0 l0 0.029297 l-0.20508 0.23438 c0.15625 0.22136 0.23438 0.34506 0.23438 0.3711 l-0.14648 0 c-0.013018 0 -0.084629 -0.084639 -0.21483 -0.25391 c-0.019531 0 -0.042314 0.022783 -0.068359 0.068359 l0 0.18555 l-0.13672 0 l0 -0.63477 z M22.841787500000002 14.7656 l0.28318 0 c0.14323 0.019531 0.21484 0.091143 0.21484 0.21484 l-0.068359 0.11719 c0.045576 0.05208 0.068359 0.14648 0.068359 0.2832 l0 0.019531 l-0.14648 0 c-0.013018 -0.15625 -0.035801 -0.23438 -0.06835 -0.23438 l-0.16602 0 l0 0.23438 l-0.11719 0 c-0.032549 0 -0.048828 -0.016279 -0.048828 -0.048828 l0 -0.53711 c0.0065136 -0.032549 0.022793 -0.048828 0.048838 -0.048828 z M22.9589875 14.9023 l0 0.14648 l0.16602 0 c0.032549 0 0.048828 -0.016279 0.048828 -0.048828 l0 -0.097656 l-0.21484 0 z M22.792987500000002 15.585899999999999 l0.44921 -0.0000095367 c0.032549 0.0065136 0.048828 0.022793 0.048828 0.048838 l0 0.048828 c0 0.032549 -0.016279 0.048828 -0.048828 0.048828 l-0.13672 0 l0 0.49805 l-0.16602 0 l0 -0.49805 l-0.14648 0 c-0.032549 0 -0.048828 -0.016279 -0.048828 -0.048828 l0 -0.048828 c0.0065136 -0.032549 0.022793 -0.048828 0.048838 -0.048828 z M22.744187500000002 16.416 l0.11719 0 c0.045576 0 0.094404 0.13347 0.14648 0.40039 l0.019531 0 c0.078125 -0.23438 0.11719 -0.36784 0.11719 -0.40039 l0.16602 0 c-0.1237 0.42317 -0.20183 0.63477 -0.23438 0.63477 l-0.13672 0 z M17.6562875 16.9531 l0 0.12695 c0 0.026045 -0.12695 0.078125 -0.38086 0.15625 l0 0.029297 l0.38086 0.13672 l0 0.14648 l-0.5957 -0.21484 l0 -0.16602 z M13.9941075 17.2363 l0.078115 0 c0.05208 0 0.13672 0.21484 0.25391 0.64453 l-0.13672 0 c0 -0.013018 -0.016279 -0.061846 -0.048828 -0.14648 l-0.21484 0 c-0.013018 0.097656 -0.035801 0.14648 -0.06835 0.14648 l-0.11719 0 c0.13672 -0.42969 0.22136 -0.64453 0.25391 -0.64453 z M23.056687500000002 17.2363 l0.068359 0 c0.15625 0 0.25065 0.11067 0.2832 0.33203 c-0.045576 0.22136 -0.14648 0.33203 -0.30273 0.33203 c-0.22136 -0.039063 -0.33203 -0.14974 -0.33203 -0.33203 c0.032549 -0.22136 0.12695 -0.33203 0.2832 -0.33203 z M22.9394875 17.5488 l0 0.019541 c0 0.084639 0.039063 0.14975 0.11719 0.19532 l0.068359 0 c0.078125 -0.045576 0.11719 -0.11068 0.11719 -0.19532 l0 -0.019531 c-0.013018 -0.1237 -0.068359 -0.18555 -0.16602 -0.18555 c-0.091143 0.032549 -0.13672 0.094395 -0.13672 0.18554 z M14.0233975 17.4512 c-0.032549 0.10417 -0.048828 0.1595 -0.048828 0.16602 l0.11719 0 l-0.048828 -0.16602 l-0.019531 0 z M20.1269875 19.76561 l3.1445 0 l0 0.23438 l-3.1445 0 l0 -0.23438 z M24.07226625 6.016 l4.248 0 c1.7773 0 3.0013 0.60222 3.6719 1.8066 c0.55989 0.94401 0.83984 2.5032 0.83984 4.6777 l0.41992 0 l0 3.3398 l-4.1309 0 l0 -0.37109 l1.2891 0 l0 -2.9688 l-0.37109 0 l0 -1.2207 c0 -1.3737 -0.30599 -2.2493 -0.91797 -2.627 c-0.36458 -0.20833 -0.944 -0.3125 -1.7383 -0.3125 l-0.56641 0 l0 4.0918 l0.38086 0 l0 3.4082 l-2.8027 0 l0 -3.1445 l-0.32227 0 l0 -6.6797 z M30.10740625 14.8047 l0.13672 0 l0 0.35156 l0.078125 0 l0 0.11719 l-0.078125 0 l0 0.14648 l-0.13672 0 l0 -0.14648 l-0.25391 0 l0 -0.087891 c0.16927 -0.23438 0.25391 -0.36133 0.25391 -0.38086 z M29.99020625 15.1562 l0.11719 0 l0 -0.13672 c-0.019531 0 -0.058594 0.045576 -0.11719 0.13672 z M27.33400625 15.136700000000001 l0.13672 -0.000019073 c0.019531 0 0.068359 0.055342 0.14648 0.16602 c0.065107 -0.078125 0.097656 -0.13347 0.097656 -0.16602 l0.15625 0 l0 0.019531 c-0.10417 0.14974 -0.15625 0.24414 -0.15625 0.2832 l0.18555 0.30273 l-0.18555 0 c0 -0.05208 -0.039063 -0.11393 -0.11719 -0.18554 c-0.058594 0.11719 -0.10742 0.17903 -0.14648 0.18555 l-0.13672 0 c0.10417 -0.1888 0.17253 -0.28971 0.20508 -0.30272 z M22.82225625 15.8398 l1.2695 0 l0 0.44922 l3.1055 0 l0 0.91797 l1.9238 0 l0 -0.91797 l4.1309 0 l0 0.91797 l-2.8418 0 l0 2.4902 l-3.2129 0 l0 0.30273 l-3.0859 0 c-0.026045 0 -0.039063 -0.016279 -0.039063 -0.048828 l0 -3.6621 l-1.25 0 l0 -0.44922 z M27.19730625 15.8398 l1.9238 0 l0 0.44922 l-1.9238 0 l0 -0.44922 z M33.25190625 15.8398 l2.7539 0 l0 0.44922 l-2.7539 0 l0 -0.44922 z M30.74220625 17.2949 l0.16601 0 c0.11067 0.30599 0.17903 0.51758 0.20508 0.63477 l-0.11719 0 c-0.026045 0 -0.048828 -0.045576 -0.068359 -0.13672 l-0.18555 0 c-0.032549 0 -0.055332 0.045576 -0.06835 0.13672 l-0.14648 0 l0 -0.019531 c0 -0.013018 0.071611 -0.2181 0.21484 -0.61523 z M31.27930625 17.2949 l0.14648 0.0000095367 l0.11719 0.40039 l0.019531 0 c0 -0.026045 0.039063 -0.15951 0.11719 -0.4004 l0.14648 0 c0 0.05208 -0.065107 0.26367 -0.19531 0.63477 l-0.13672 0 c-0.039063 0 -0.11067 -0.21159 -0.21484 -0.63477 z M32.06050625 17.2949 l0.16602 0 l0 0.63477 l-0.16602 0 l0 -0.63477 z M32.50000625 17.2949 l0.26367 -0.0000095367 c0.20183 0 0.30273 0.11719 0.30273 0.35156 c0 0.16276 -0.10091 0.25717 -0.30273 0.28321 l-0.26367 0 l0 -0.63477 z M32.66600625 17.4414 l0 0.35156 l0.14648 0 c0.019531 0 0.048828 -0.032549 0.087891 -0.097656 l0 -0.16602 c0 -0.019531 -0.029297 -0.048828 -0.087891 -0.087891 l-0.14648 0 z M30.81050625 17.4902 c0 0.019531 -0.016279 0.081377 -0.048828 0.18555 l0.11719 0 c-0.026045 -0.10417 -0.039063 -0.16602 -0.039063 -0.18555 l-0.029297 0 z M38.935545625 6.006 l2.7734 0 l0 5.7422 l-0.53711 0 l0 5.9277 l4.1309 0 l0 1.2402 l-0.82031 0 l0 0.2832 l0.82031 0 l0 0.80078 l-2.6758 0 l0 -0.21484 l-3.6719 0 c-0.013018 -0.15625 -0.019531 -0.27344 -0.019531 -0.35156 l0 -3.125 l0.70313 0 l0 -0.41992 l-0.70313 0 l0 -9.8828 z M41.357465625 16.9434 l0.16602 0 c0.078125 0.11067 0.1237 0.16602 0.13672 0.16602 c0.05208 -0.11067 0.091143 -0.16602 0.11719 -0.16602 l0.14648 0 c-0.019531 0.05208 -0.081377 0.14648 -0.18555 0.2832 c0.032549 0.065107 0.10091 0.17578 0.20508 0.33203 l-0.16602 0 c-0.078125 -0.071611 -0.11719 -0.13672 -0.11719 -0.19531 c-0.013018 0 -0.068359 0.065107 -0.16602 0.19531 l-0.13672 0 l0 -0.029297 l0.18555 -0.2832 l0 -0.019531 z M45.302765625 18.916 l1.0156 0 l0 0.2832 l-1.0156 0 l0 -0.2832 z M50.7031625 6.016 l2.3535 0 c0.032549 0.13672 0.79752 2.6823 2.2949 7.6367 l0.41992 0 l0 4.5996 l-0.9668 0 l0 0.36133 l0.9668 0 l0 0.98633 l-2.5977 0 l0 -2.832 l-3.1836 0 l0 1.2012 l-1.2891 0 l0 2.0313 l-2.3633 0 l0 -0.13672 l0.18555 0 l0 -1.8945 l0.9668 0 l0 -3.916 l0.80078 0 z M51.8066625 9.951 l0 0.029306 c-0.20183 1.1067 -0.59245 2.8581 -1.1719 5.2539 l2.1875 0 l0 -1.582 l-0.18555 0 c-0.52083 -2.2656 -0.78125 -3.4993 -0.78125 -3.7012 l-0.048828 0 z M47.6367625 13.349599999999999 l0.21484 0 c0 0.058594 0.029297 0.10742 0.087891 0.14648 c0.0065136 -0.058594 0.039063 -0.10742 0.097656 -0.14648 l0.16602 0 l0 0.019531 c-0.11067 0.15625 -0.16602 0.24414 -0.16602 0.26367 c0.026045 0.058594 0.087891 0.153 0.18555 0.2832 l0 0.048828 l-0.087891 0 c-0.091143 0 -0.15625 -0.065107 -0.19531 -0.19531 c-0.097656 0.13021 -0.153 0.19531 -0.16602 0.19531 l-0.11719 0 c-0.032549 0 -0.048828 -0.016279 -0.048828 -0.048828 c0.019531 0 0.084639 -0.087891 0.19531 -0.26367 l0 -0.039063 c-0.11067 -0.16276 -0.16602 -0.25065 -0.16602 -0.26367 z M45.6543025 13.6328 l1.8359 0 l0 0.41992 l-1.8359 0 l0 -0.41992 z M55.8398625 13.935500000000001 l0.49805 -0.0000095367 l0 0.11719 l-0.30273 0.38086 l0.2832 0 c0.026045 0.0065136 0.039063 0.022793 0.039063 0.048838 l0 0.048828 c0 0.032549 -0.013018 0.048828 -0.039063 0.048828 l-0.49805 0 l0 -0.11719 l0.30273 -0.38086 l-0.2832 0 l0 -0.14648 z M52.2363625 14.550799999999999 l0.13671 -0.0000095367 l0 0.23438 l0.26367 -0.23438 l0.13672 0 l0 0.029297 l-0.20508 0.23438 c0.15625 0.22136 0.23438 0.34506 0.23438 0.3711 l-0.14648 0 c-0.013018 0 -0.084629 -0.084639 -0.21483 -0.25391 c-0.019531 0 -0.042314 0.022783 -0.068359 0.068359 l0 0.18555 l-0.13672 0 l0 -0.63477 z M55.8886625 14.7656 l0.28318 0 c0.14323 0.019531 0.21484 0.091143 0.21484 0.21484 l-0.068359 0.11719 c0.045576 0.05208 0.068359 0.14648 0.068359 0.2832 l0 0.019531 l-0.14648 0 c-0.013018 -0.15625 -0.035801 -0.23438 -0.06835 -0.23438 l-0.16602 0 l0 0.23438 l-0.11719 0 c-0.032549 0 -0.048828 -0.016279 -0.048828 -0.048828 l0 -0.53711 c0.0065136 -0.032549 0.022793 -0.048828 0.048838 -0.048828 z M56.0058625 14.9023 l0 0.14648 l0.16602 0 c0.032549 0 0.048828 -0.016279 0.048828 -0.048828 l0 -0.097656 l-0.21484 0 z M55.8398625 15.585899999999999 l0.44921 -0.0000095367 c0.032549 0.0065136 0.048828 0.022793 0.048828 0.048838 l0 0.048828 c0 0.032549 -0.016279 0.048828 -0.048828 0.048828 l-0.13672 0 l0 0.49805 l-0.16602 0 l0 -0.49805 l-0.14648 0 c-0.032549 0 -0.048828 -0.016279 -0.048828 -0.048828 l0 -0.048828 c0.0065136 -0.032549 0.022793 -0.048828 0.048838 -0.048828 z M55.7910625 16.416 l0.11719 0 c0.045576 0 0.094404 0.13347 0.14648 0.40039 l0.019531 0 c0.078125 -0.23438 0.11719 -0.36784 0.11719 -0.40039 l0.16602 0 c-0.1237 0.42317 -0.20183 0.63477 -0.23438 0.63477 l-0.13672 0 z M50.7031625 16.9531 l0 0.12695 c0 0.026045 -0.12695 0.078125 -0.38086 0.15625 l0 0.029297 l0.38086 0.13672 l0 0.14648 l-0.5957 -0.21484 l0 -0.16602 z M47.0409825 17.2363 l0.078115 0 c0.05208 0 0.13672 0.21484 0.25391 0.64453 l-0.13672 0 c0 -0.013018 -0.016279 -0.061846 -0.048828 -0.14648 l-0.21484 0 c-0.013018 0.097656 -0.035801 0.14648 -0.06835 0.14648 l-0.11719 0 c0.13672 -0.42969 0.22136 -0.64453 0.25391 -0.64453 z M56.1035625 17.2363 l0.068359 0 c0.15625 0 0.25065 0.11067 0.2832 0.33203 c-0.045576 0.22136 -0.14648 0.33203 -0.30273 0.33203 c-0.22136 -0.039063 -0.33203 -0.14974 -0.33203 -0.33203 c0.032549 -0.22136 0.12695 -0.33203 0.2832 -0.33203 z M55.9863625 17.5488 l0 0.019541 c0 0.084639 0.039063 0.14975 0.11719 0.19532 l0.068359 0 c0.078125 -0.045576 0.11719 -0.11068 0.11719 -0.19532 l0 -0.019531 c-0.013018 -0.1237 -0.068359 -0.18555 -0.16602 -0.18555 c-0.091143 0.032549 -0.13672 0.094395 -0.13672 0.18554 z M47.0702725 17.4512 c-0.032549 0.10417 -0.048828 0.1595 -0.048828 0.16602 l0.11719 0 l-0.048828 -0.16602 l-0.019531 0 z M53.1738625 19.76561 l3.1445 0 l0 0.23438 l-3.1445 0 l0 -0.23438 z M56.95312125 6.006 l3.9746 0.0000095367 c1.7644 0 2.8874 0.44597 3.3691 1.3379 c0.27344 0.46875 0.41016 1.1067 0.41016 1.9141 l0 0.97656 c0 0.91797 -0.40039 1.6602 -1.2012 2.2266 c0.27344 0.045576 0.61849 0.25391 1.0352 0.625 l0.30273 0 c0.39714 0.40364 0.6543 0.79427 0.77148 1.1719 c0.032549 0.13021 0.048828 0.20182 0.048828 0.21483 l0.38086 0 l0 0.23438 l-1.2695 0 l0 -0.23438 l-2.6074 0 l0 -0.74219 l-2.5586 0 l0 4.0723 l1.6016 0 l0 -0.29297 l0.95703 0 l0 -2.8027 l2.6074 0 l0 2.4707 l0.29297 0 l0 1.5527 l-0.86914 0 l0 0.36133 l0.86914 0 l0 0.64453 l-3.3105 0 l0 0.26367 l-3.6133 0 l0 -0.26367 l-0.78125 0 l0 -2.1484 l1.0742 0 l0 -0.57617 l-1.0742 0 c-0.019531 -1.0938 -0.029297 -1.9075 -0.029297 -2.4414 l0 -1.0352 l-0.9082 0 l0 -0.26367 l0.9082 0 l0 -0.54688 l-0.42969 0 l0 -6.6699 c0.0065136 -0.032549 0.022793 -0.048828 0.048838 -0.048828 z M59.65818125 8.369 l-0.0000095367 3.4668 l0.5957 0 c0.70313 0 1.1653 -0.11719 1.3867 -0.35156 c0.22136 -0.1888 0.33203 -0.69986 0.33203 -1.5332 l0 -0.048828 c0 -0.71614 -0.11067 -1.1458 -0.33203 -1.2891 c-0.14974 -0.16276 -0.6608 -0.24414 -1.5332 -0.24414 l-0.44922 0 z M57.36326125 13.2715 l0 0.26367 l1.2891 0 l0 -0.26367 l-1.2891 0 z M56.83592125 13.584 l0.47852 -0.0000095367 l0 0.097656 c0 0.032549 -0.016279 0.048828 -0.048828 0.048828 l-0.29297 0 l0 0.097656 l0.26367 0 c0.032549 0.0065136 0.048828 0.022793 0.048828 0.048838 l0 0.048828 c0 0.032549 -0.016279 0.048828 -0.048828 0.048828 l-0.26367 0 l0 0.11719 l0.3418 0 l0 0.097656 c0 0.026045 -0.016279 0.039063 -0.048828 0.039063 l-0.42969 0 l0 -0.64453 z M60.84958125 14.4727 l1.3184 0 l0 0.23438 l-1.3184 0 l0 -0.23438 z M65.15628125 14.7559 l0.078106 -0.0000095367 c0.032549 0.0065136 0.048828 0.022793 0.048828 0.048838 l0 0.41016 c-0.026045 0.14323 -0.097656 0.21484 -0.21484 0.21484 c-0.14974 -0.026045 -0.22461 -0.097656 -0.22461 -0.21484 l0 -0.029297 c0.0065136 -0.026045 0.022793 -0.039063 0.048838 -0.039063 l0.048828 0 c0.032549 0 0.058594 0.045576 0.078125 0.13672 l0.087891 0 l0 -0.47852 c0.0065136 -0.032549 0.022793 -0.048828 0.048838 -0.048828 z M64.94138125 15.5957 l0.1953 -0.0000095367 c0.22136 0 0.33203 0.12044 0.33203 0.36133 c0 0.16276 -0.10417 0.25717 -0.3125 0.28321 l-0.26367 0 l0 -0.5957 c0.0065136 -0.032549 0.022793 -0.048828 0.048838 -0.048828 z M65.06838125 15.7422 l0 0.36133 l0.087891 0 c0.097656 0 0.14648 -0.048828 0.14648 -0.14648 l0 -0.048828 c0 -0.11067 -0.055342 -0.16602 -0.16602 -0.16602 l-0.068359 0 z M64.94138125 16.4355 l0.36132 -0.0000095367 c0.032549 0.0065136 0.048828 0.022793 0.048828 0.048838 l0 0.097656 l-0.2832 0 l0 0.11719 l0.23438 0 l0 0.11719 l-0.23438 0 l0 0.21484 c0 0.032549 -0.016279 0.048828 -0.048828 0.048828 l-0.12695 0 l0 -0.5957 c0.0065136 -0.032549 0.022793 -0.048828 0.048838 -0.048828 z M61.59168125 16.8164 l0.50781 0 l0 0.11719 l-0.3125 0.39063 l0.33203 0 l0 0.087891 c0 0.032549 -0.016279 0.048828 -0.048828 0.048828 l-0.44922 0 c-0.032549 0 -0.048828 -0.016279 -0.048828 -0.048828 l0 -0.068359 l0.3125 -0.38086 l-0.24414 0 c-0.032549 0 -0.048828 -0.016279 -0.048828 -0.048828 l0 -0.097656 z M59.67768125 17.2266 l0.029287 0.0000095367 c0.29948 0.091143 0.44922 0.15299 0.44922 0.18554 l0 0.048828 c-0.032549 0.045576 -0.18229 0.11719 -0.44921 0.21484 l-0.029297 -0.048828 l0 -0.019531 c0 -0.045576 0.097656 -0.094404 0.29297 -0.14648 c0 -0.032549 -0.097656 -0.078125 -0.29297 -0.13672 l0 -0.097656 z"></path></g><g id="SvgjsG8329" featurekey="IfqRl1-0" transform="matrix(0.8714649428041292,0,0,0.8714649428041292,116.54590635283301,62.280133855956734)" fill="#545454"><path d="M4.458 11.0046 c-0.21816 0.12059 -0.44118 0.32306 -0.44118 0.90966 c0 0.45724 0.14779 0.70718 0.52734 0.89108 c0.38386 0.18598 0.81196 0.19957 0.83354 0.2001 l8.5334 0.03336 c1.4828 0 3.6956 0.9158 3.6956 3.4388 s-2.0564 3.4388 -3.4388 3.4388 l-12.499 0 l0 -2.3477 l12.488 0 c0.1024 -0.0035352 0.40818 -0.04211 0.66022 -0.18152 c0.21828 -0.12072 0.44128 -0.32318 0.44128 -0.90964 c0 -0.45724 -0.14779 -0.70718 -0.52734 -0.89108 c-0.3827 -0.18547 -0.81038 -0.19947 -0.8343 -0.20012 l-8.5278 -0.03793 l0 0.0045703 c-1.4875 0 -3.7004 -0.9158 -3.7004 -3.4388 s2.0564 -3.4388 3.4388 -3.4388 l12.499 0 l0 2.3477 l-12.488 0 c-0.10229 0.0035352 -0.40834 0.04211 -0.6605 0.18152 z M20.9492 8.475 l15.938 0 l0 2.3477 l-6.7954 0 l0 9.0932 l-2.3476 0 l0 -9.0932 l-6.7946 0 l0 -2.3477 z M56.187 10.9512 l-13.59 0.000019531 l0 2.1863 l9.0642 0.03375 l-0.0086328 2.3478 l-9.0556 -0.03375 l0 2.1782 l13.59 0 l0 2.3477 l-15.938 0 l0 -11.407 l15.938 0 l0 2.3476 z M73.719 8.662 l2.9056 0 l-9.017 12.023 l-9.018 -12.023 l2.9058 0 l6.1122 8.1492 z M94.947 10.9512 l-13.59 0.000019531 l0 2.1863 l9.0642 0.03375 l-0.0086328 2.3478 l-9.0556 -0.03375 l0 2.1782 l13.59 0 l0 2.3477 l-15.938 0 l0 -11.407 l15.938 0 l0 2.3476 z M109.958 11.0046 c-0.21816 0.12059 -0.44118 0.32306 -0.44118 0.90966 c0 0.45724 0.14779 0.70718 0.52734 0.89108 c0.38386 0.18598 0.81196 0.19957 0.83354 0.2001 l8.5334 0.03336 c1.4828 0 3.6956 0.9158 3.6956 3.4388 s-2.0564 3.4388 -3.4388 3.4388 l-12.499 0 l0 -2.3477 l12.488 0 c0.1024 -0.0035352 0.40818 -0.04211 0.66022 -0.18152 c0.21828 -0.12072 0.44128 -0.32318 0.44128 -0.90964 c0 -0.45724 -0.14779 -0.70718 -0.52734 -0.89108 c-0.3827 -0.18547 -0.81038 -0.19947 -0.8343 -0.20012 l-8.5278 -0.03793 l0 0.0045703 c-1.4875 0 -3.7004 -0.9158 -3.7004 -3.4388 s2.0564 -3.4388 3.4388 -3.4388 l12.499 0 l0 2.3477 l-12.488 0 c-0.10229 0.0035352 -0.40834 0.04211 -0.6605 0.18152 z M142.21 17.65 l0.040136 2.3242 l-1.1621 0.02002 c-0.015039 0.0002539 -1.0275 0.017129 -3.0076 0.017129 c-1.0032 0 -2.2546 -0.0044532 -3.7506 -0.017402 c-2.4132 -0.021054 -4.3428 -0.54212 -5.7348 -1.549 c-1.3835 -1.0007 -2.1454 -2.4562 -2.1454 -4.0986 c0 -1.6413 0.76854 -3.1002 2.164 -4.1074 c1.383 -0.99846 3.3616 -1.531 5.7218 -1.5402 c4.441 -0.017129 6.719 0.00027344 6.7416 0.00041016 l1.1622 0.0091602 l-0.01832 2.3246 l-1.1622 -0.0091602 c-0.022364 -0.0002539 -2.2892 -0.01752 -6.7144 -0.00039062 c-3.4358 0.01334 -5.5702 1.2866 -5.5702 3.3232 c0 0.90194 0.39812 1.6473 1.1831 2.215 c0.97936 0.70836 2.4984 1.0916 4.3926 1.1081 c4.4144 0.038574 6.6758 0.00089844 6.698 0.00050782 z M153.7754 7.711 l9.1766 12.19 l-2.9508 0 l-2.566 -3.3974 l-7.3197 0 l-2.5286 3.3974 l-2.9177 0 z M151.8762 14.1556 l3.7983 0 l-1.8992 -2.5322 z M179.697 17.557 l1.162 -0.017422 l0.034786 2.3242 l-1.1621 0.017402 c-0.18088 0.002754 -0.38542 0.0058984 -0.6087 0.0058984 c-1.614 0 -4.2026 -0.16008 -5.8378 -1.7712 c-0.72798 -0.71726 -1.1865 -1.629 -1.3698 -2.72 l-4.2054 0 l-0.016602 4.4896 l-2.3246 -0.0086328 l0.037402 -10.127 l0 -1.1635 l0.0043164 0 l0 -0.0043164 l1.1612 0.0043164 l10.951 0 c1.4728 0 3.6638 0.90678 3.6638 3.4048 c0 2.4982 -2.0362 3.405 -3.4048 3.405 l-3.4826 0 c0.12543 0.4252 0.32842 0.77924 0.61734 1.064 c1.1685 1.151 3.608 1.1146 4.7804 1.0969 z M167.73139999999998 13.0714 l10.041 -0.000019531 c0.10148 -0.0035352 0.40426 -0.041718 0.6538 -0.17971 c0.21608 -0.11955 0.43686 -0.32006 0.43686 -0.90076 c0 -0.46692 -0.15799 -0.71972 -0.56382 -0.90166 c-0.36882 -0.16531 -0.77152 -0.17865 -0.77532 -0.17865 l-9.7922 0 l0 2.1608 z M200.32999999999998 14.394400000000001 c-0.019883 1.3657 -0.00015625 4.4302 0.00023438 4.4608 l0.0077148 1.1699 l-7.8979 0 c-2.3734 0 -4.3588 -0.53114 -5.7416 -1.5357 c-1.3856 -1.0067 -2.1486 -2.467 -2.1486 -4.112 c0 -1.3641 0.51466 -2.5964 1.4885 -3.563 c1.3944 -1.3842 3.6104 -2.1058 6.4102 -2.0846 c1.7076 0.012559 6.6666 0.00013672 6.7164 0 l1.1622 -0.0030078 l0.005879 2.3246 l-1.1622 0.0030078 c-0.050098 0.00013672 -5.0206 0.012695 -6.7396 0 c-2.1376 -0.016875 -3.824 0.4851 -4.7556 1.4098 c-0.53204 0.52812 -0.80174 1.1717 -0.80174 1.9133 c0 2.0496 2.1326 3.323 5.5658 3.323 l5.5599 0 c-0.0024804 -0.63696 -0.0043164 -1.4395 -0.0024804 -2.1608 l-4.4771 0 l0 -2.3246 l6.8269 0 z M211.87539999999998 7.711 l9.1766 12.19 l-2.9508 0 l-2.566 -3.3974 l-7.3197 0 l-2.5286 3.3974 l-2.9177 0 z M209.9762 14.1556 l3.7983 0 l-1.8992 -2.5322 z M225.81699999999998 17.619 l13.59 0 l0 2.3477 l-15.938 0 l0 -11.407 l2.3477 0 l0 9.0597 z M245.117 17.619 l13.59 0 l0 2.3477 l-15.938 0 l0 -11.407 l2.3477 0 l0 9.0597 z"></path></g></svg>